HIERARCHY
ROOT Hips
{
	OFFSET 	 0.0	 80.0	 0.0
	CHANNELS 6 Xposition Yposition Zposition Xrotation Yrotation Zrotation 
	JOINT Spine
	{
		OFFSET 	 15.3169	 0.0	 -0.012192
		CHANNELS 3 Xrotation Yrotation Zrotation 
		JOINT Spine_1
		{
			OFFSET 	 15.3176	 0.0	 -0.012192
			CHANNELS 3 Xrotation Yrotation Zrotation 
			JOINT Neck
			{
				OFFSET 	 19.9142	 -1e-06	 1.563377
				CHANNELS 3 Xrotation Yrotation Zrotation 
				JOINT Head
				{
					OFFSET 	 6.926521	 0.0	 0.0
					CHANNELS 3 Xrotation Yrotation Zrotation 
					End Site
					{
						OFFSET 	 20.766598	 0.0	 0.0
					}
				}
				JOINT LeftShoulder
				{
					OFFSET 	 -6.201691	 -7.28423	 0.708832
					CHANNELS 3 Xrotation Yrotation Zrotation 
					JOINT LeftArm
					{
						OFFSET 	 14.107998	 1.3e-05	 0.0
						CHANNELS 3 Xrotation Yrotation Zrotation 
						JOINT LeftForeArm
						{
							OFFSET 	 28.5802	 0.0	 0.0
							CHANNELS 3 Xrotation Yrotation Zrotation 
							JOINT LeftHand
							{
								OFFSET 	 27.091896	 0.0	 0.0
								CHANNELS 3 Xrotation Yrotation Zrotation 
								JOINT Bip01_L_Finger0
								{
									OFFSET 	 2.676086	 3.19825	 0.628212
									CHANNELS 3 Xrotation Yrotation Zrotation 
									JOINT Bip01_L_Finger01
									{
										OFFSET 	 2.82782	 0.0	 0.0
										CHANNELS 3 Xrotation Yrotation Zrotation 
										JOINT Bip01_L_Finger02
										{
											OFFSET 	 3.100327	 0.0	 0.0
											CHANNELS 3 Xrotation Yrotation Zrotation 
											End Site
											{
												OFFSET 	 2.683968	 0.0	 0.0
											}
										}
									}
								}
								JOINT Bip01_L_Finger1
								{
									OFFSET 	 9.438972	 2.24244	 -0.203926
									CHANNELS 3 Xrotation Yrotation Zrotation 
									JOINT Bip01_L_Finger11
									{
										OFFSET 	 3.12896	 0.0	 0.0
										CHANNELS 3 Xrotation Yrotation Zrotation 
										JOINT Bip01_L_Finger12
										{
											OFFSET 	 2.379051	 0.0	 0.0
											CHANNELS 3 Xrotation Yrotation Zrotation 
											End Site
											{
												OFFSET 	 2.09993	 0.0	 0.0
											}
										}
									}
								}
								JOINT Bip01_L_Finger2
								{
									OFFSET 	 9.55928	 -0.145352	 -0.186424
									CHANNELS 3 Xrotation Yrotation Zrotation 
									JOINT Bip01_L_Finger21
									{
										OFFSET 	 3.801407	 0.0	 0.0
										CHANNELS 3 Xrotation Yrotation Zrotation 
										JOINT Bip01_L_Finger22
										{
											OFFSET 	 2.848793	 0.0	 0.0
											CHANNELS 3 Xrotation Yrotation Zrotation 
											End Site
											{
												OFFSET 	 2.01886	 0.0	 0.0
											}
										}
									}
								}
								JOINT Bip01_L_Finger3
								{
									OFFSET 	 8.993629	 -2.30169	 0.226974
									CHANNELS 3 Xrotation Yrotation Zrotation 
									JOINT Bip01_L_Finger31
									{
										OFFSET 	 3.369652	 0.0	 0.0
										CHANNELS 3 Xrotation Yrotation Zrotation 
										JOINT Bip01_L_Finger32
										{
											OFFSET 	 2.444229	 0.0	 0.0
											CHANNELS 3 Xrotation Yrotation Zrotation 
											End Site
											{
												OFFSET 	 2.057808	 0.0	 0.0
											}
										}
									}
								}
								JOINT Bip01_L_Finger4
								{
									OFFSET 	 8.023811	 -3.97473	 1.201897
									CHANNELS 3 Xrotation Yrotation Zrotation 
									JOINT Bip01_L_Finger41
									{
										OFFSET 	 2.908783	 0.0	 0.0
										CHANNELS 3 Xrotation Yrotation Zrotation 
										JOINT Bip01_L_Finger42
										{
											OFFSET 	 1.535797	 0.0	 0.0
											CHANNELS 3 Xrotation Yrotation Zrotation 
											End Site
											{
												OFFSET 	 1.630142	 0.0	 0.0
											}
										}
									}
								}
							}
						}
					}
				}
				JOINT RightShoulder
				{
					OFFSET 	 -6.20549	 7.280139	 0.70887
					CHANNELS 3 Xrotation Yrotation Zrotation 
					JOINT RightArm
					{
						OFFSET 	 14.107998	 -1e-05	 0.0
						CHANNELS 3 Xrotation Yrotation Zrotation 
						JOINT RightForeArm
						{
							OFFSET 	 28.5802	 -1.9e-05	 0.0
							CHANNELS 3 Xrotation Yrotation Zrotation 
							JOINT RightHand
							{
								OFFSET 	 27.092003	 0.0	 0.0
								CHANNELS 3 Xrotation Yrotation Zrotation 
								JOINT Bip01_R_Finger0
								{
									OFFSET 	 2.676079	 -3.19825	 0.628212
									CHANNELS 3 Xrotation Yrotation Zrotation 
									JOINT Bip01_R_Finger01
									{
										OFFSET 	 2.82782	 0.0	 0.0
										CHANNELS 3 Xrotation Yrotation Zrotation 
										JOINT Bip01_R_Finger02
										{
											OFFSET 	 3.100342	 0.0	 0.0
											CHANNELS 3 Xrotation Yrotation Zrotation 
											End Site
											{
												OFFSET 	 2.68396	 0.0	 0.0
											}
										}
									}
								}
								JOINT Bip01_R_Finger1
								{
									OFFSET 	 9.438957	 -2.242439	 -0.203918
									CHANNELS 3 Xrotation Yrotation Zrotation 
									JOINT Bip01_R_Finger11
									{
										OFFSET 	 3.12896	 0.0	 0.0
										CHANNELS 3 Xrotation Yrotation Zrotation 
										JOINT Bip01_R_Finger12
										{
											OFFSET 	 2.379051	 0.0	 0.0
											CHANNELS 3 Xrotation Yrotation Zrotation 
											End Site
											{
												OFFSET 	 2.099922	 0.0	 0.0
											}
										}
									}
								}
								JOINT Bip01_R_Finger2
								{
									OFFSET 	 9.559288	 0.145353	 -0.186417
									CHANNELS 3 Xrotation Yrotation Zrotation 
									JOINT Bip01_R_Finger21
									{
										OFFSET 	 3.801407	 0.0	 0.0
										CHANNELS 3 Xrotation Yrotation Zrotation 
										JOINT Bip01_R_Finger22
										{
											OFFSET 	 2.848793	 0.0	 0.0
											CHANNELS 3 Xrotation Yrotation Zrotation 
											End Site
											{
												OFFSET 	 2.01886	 0.0	 0.0
											}
										}
									}
								}
								JOINT Bip01_R_Finger3
								{
									OFFSET 	 8.993629	 2.301691	 0.226974
									CHANNELS 3 Xrotation Yrotation Zrotation 
									JOINT Bip01_R_Finger31
									{
										OFFSET 	 3.369652	 0.0	 0.0
										CHANNELS 3 Xrotation Yrotation Zrotation 
										JOINT Bip01_R_Finger32
										{
											OFFSET 	 2.444221	 0.0	 0.0
											CHANNELS 3 Xrotation Yrotation Zrotation 
											End Site
											{
												OFFSET 	 2.057823	 0.0	 0.0
											}
										}
									}
								}
								JOINT Bip01_R_Finger4
								{
									OFFSET 	 8.023811	 3.97473	 1.20192
									CHANNELS 3 Xrotation Yrotation Zrotation 
									JOINT Bip01_R_Finger41
									{
										OFFSET 	 2.908783	 0.0	 0.0
										CHANNELS 3 Xrotation Yrotation Zrotation 
										JOINT Bip01_R_Finger42
										{
											OFFSET 	 1.535797	 0.0	 0.0
											CHANNELS 3 Xrotation Yrotation Zrotation 
											End Site
											{
												OFFSET 	 1.630142	 0.0	 0.0
											}
										}
									}
								}
							}
						}
					}
				}
			}
		}
	}
	JOINT LeftUpLeg
	{
		OFFSET 	 -12.021299	 -8.83685	 -0.372498
		CHANNELS 3 Xrotation Yrotation Zrotation 
		JOINT LeftLeg
		{
			OFFSET 	 39.9035	 0.0	 0.0
			CHANNELS 3 Xrotation Yrotation Zrotation 
			JOINT LeftFoot
			{
				OFFSET 	 39.6689	 0.0	 0.0
				CHANNELS 3 Xrotation Yrotation Zrotation 
				JOINT Bip01_L_Toe0
				{
					OFFSET 	 10.162399	 -2e-06	 13.629601
					CHANNELS 3 Xrotation Yrotation Zrotation 
					End Site
					{
						OFFSET 	 8.38147	 0.0	 0.0
					}
				}
			}
		}
	}
	JOINT RightUpLeg
	{
		OFFSET 	 -12.021299	 8.836849	 -0.372444
		CHANNELS 3 Xrotation Yrotation Zrotation 
		JOINT RightLeg
		{
			OFFSET 	 39.9035	 0.0	 0.0
			CHANNELS 3 Xrotation Yrotation Zrotation 
			JOINT RightFoot
			{
				OFFSET 	 39.6689	 0.0	 0.0
				CHANNELS 3 Xrotation Yrotation Zrotation 
				JOINT Bip01_R_Toe0
				{
					OFFSET 	 10.162399	 -2e-06	 13.629601
					CHANNELS 3 Xrotation Yrotation Zrotation 
					End Site
					{
						OFFSET 	 8.38147	 0.0	 0.0
					}
				}
			}
		}
	}
}
MOTION
Frames: 7
Frame Time: 0.013889
0.0	0.0	0.0	-176.396768222	-12.1770469999	-91.481232	-0.0	1.567601	-0.001154	-0.0	0.0	0.0	-1.1e-05	-19.396002	-5.8e-05	-3e-06	8.365519	2.4e-05	-178.641962	-19.436966	103.234093	5.27263	-11.253508	-13.209047	-1e-06	20.671602	1e-06	-91.399422	-3.905428	-1.958693	-1e-06	2e-06	0.0	-0.0	0.0	-1e-06	-0.0	0.0	-1e-06	-0.0	1e-06	0.0	-0.0	0.0	0.0	-0.0	0.0	0.0	-0.0	1e-06	0.0	-0.0	0.0	0.0	-0.0	0.0	0.0	-0.0	1e-06	0.0	-0.0	0.0	0.0	-0.0	0.0	0.0	-1e-06	1e-06	8.47470009226e-30	-0.0	0.0	-1e-06	-0.0	0.0	-1e-06	178.642286	-19.436966	-103.234077	4.806522	-8.928592	13.048603	-0.0	20.671602	1e-06	91.399414	-3.905429	1.958693	1e-06	0.0	-1e-06	1e-06	0.0	3e-06	-0.0	0.0	3e-06	1e-06	0.0	-2e-06	-0.0	0.0	0.0	1e-06	0.0	0.0	1e-06	1e-06	-1e-06	-0.0	0.0	-1e-06	-0.0	0.0	-1e-06	1e-06	0.0	-2e-06	-0.0	0.0	2e-06	-0.0	0.0	2e-06	1e-06	0.0	-2e-06	1e-06	0.0	0.0	-0.0	0.0	0.0	16.220778	-6.316868	-176.026642	2e-06	6.513119	-4.73939579943e-23	1.56888	-11.488903	-3.000448	179.999998	-88.79995	179.999987	-16.025791	-2.095186	177.739349	-0.0	7.48561	0.0	-1.665523	-8.192807	1.388189	-0.0	-89.300003	0.0	
-8.00000000822e-06	-0.00049655390507	0.0159682813797	-176.406229222	-12.2098799997	-91.481422	-0.010154	1.53698	-0.000881	1e-06	-1e-06	8.47470009226e-30	0.657368	-19.106836	2.678663	-0.036728	8.076465	-2.56141	-178.588333	-19.276596	104.226212	5.247757	-11.239603	-13.266593	-0.0	20.656296	1e-06	-87.626747	7.206413	-6.215848	1e-06	0.0	-1e-06	-0.0	0.0	0.0	-0.0	0.0	0.0	1e-06	0.0	0.0	-0.0	0.0	0.0	-0.0	0.0	0.0	1e-06	0.0	-1e-06	-0.0	0.0	0.0	-0.0	0.0	0.0	1e-06	0.0	0.0	-0.0	0.0	0.0	1e-06	0.0	0.0	1e-06	0.0	0.0	-0.0	0.0	0.0	-0.0	0.0	0.0	178.892719	-19.199692	-100.579582	4.87886	-8.951628	13.06315	1e-06	20.902897	1e-06	81.079727	19.222038	5.076173	1e-06	-3e-06	2e-06	1e-06	-1e-06	2e-06	1e-06	-1e-06	2e-06	-0.0	-2e-06	1e-06	-0.0	-1e-06	1e-06	-0.0	1e-06	1e-06	1e-06	0.0	0.0	-0.0	2e-06	2e-06	-0.0	2e-06	2e-06	1e-06	-3e-06	1e-06	-0.0	-1e-06	1e-06	-0.0	-1e-06	1e-06	1e-06	-3e-06	1e-06	-0.0	-1e-06	1e-06	-0.0	-1e-06	1e-06	16.220304	-6.302108	-176.028961	-0.0	6.50232	0.0	1.602206	-11.482526	-3.002232	-179.999998	-88.799957	179.999987	-16.045027	-2.087794	177.740707	-0.0	7.48561	0.0	-1.653243	-8.192032	1.373003	-0.0	-89.300003	0.0	
-2.29999999988e-05	-0.000838509717763	0.0269649658901	-176.411371222	-12.2161930004	-91.481468	-0.0121	1.532131	-0.00083	2e-06	0.0	0.0	0.699748	-19.157982	2.609597	0.031934	8.07409	-2.508715	-178.541661	-19.117264	105.216301	5.222887	-11.225593	-13.324135	-0.0	20.640997	1e-06	-82.00367	17.608057	-12.036914	-2e-06	-2e-06	0.0	-1e-06	0.0	1e-06	-1e-06	0.0	1e-06	-0.0	2e-06	0.0	-0.0	2e-06	1e-06	-0.0	2e-06	1e-06	-1e-06	0.0	0.0	-1e-06	-1e-06	1e-06	-1e-06	-1e-06	1e-06	-2e-06	-1e-06	-1.69494001845e-29	-0.0	-1e-06	1e-06	-0.0	-1e-06	1e-06	-1e-06	-1e-06	-8.47470009226e-30	-0.0	-1e-06	1e-06	-0.0	-1e-06	1e-06	178.819928	-19.262238	-100.645149	4.894444	-8.948083	13.065494	-0.0	20.893398	1e-06	81.719231	18.550074	4.549505	-0.0	1e-06	-1e-06	1e-06	-1e-06	1e-06	1e-06	-1e-06	1e-06	-0.0	1e-06	0.0	-0.0	-2e-06	-2e-06	-0.0	0.0	-2e-06	-1e-06	2e-06	-1e-06	-0.0	0.0	-1e-06	-0.0	0.0	-1e-06	-0.0	1e-06	0.0	-0.0	-1e-06	0.0	-0.0	-1e-06	0.0	-0.0	1e-06	0.0	1e-06	-1e-06	-1e-06	-0.0	-1e-06	-1e-06	16.219736	-6.287585	-176.025238	-0.0	6.501721	0.0	1.610056	-11.478188	-3.001797	179.999997	-88.799957	179.999987	-16.048164	-2.071951	177.745148	-1e-06	7.485609	1e-06	-1.634651	-8.181729	1.370246	-0.0	-89.300003	0.0	
-8.00000000822e-06	-0.00125105928457	0.0399744287097	-176.427561222	-12.2285550002	-91.481606	-0.015311	1.527021	-0.000746	-0.0	0.0	0.0	0.755054	-19.173857	2.631638	0.089956	8.002202	-2.557483	-178.527292	-19.00119	105.90519	5.206185	-11.215423	-13.35272	-1e-06	20.634001	1e-06	-76.690971	24.25037	-17.353117	-2e-06	-2e-06	0.0	-0.0	1e-06	0.0	-0.0	1e-06	0.0	-2e-06	-3e-06	1e-06	-2e-06	0.0	0.0	-2e-06	0.0	0.0	-1e-06	-3e-06	1e-06	-1e-06	0.0	0.0	-1e-06	0.0	0.0	-1e-06	-3e-06	1e-06	-0.0	0.0	-2e-06	-0.0	0.0	-2e-06	-1e-06	-3e-06	2e-06	-0.0	0.0	0.0	-0.0	0.0	0.0	178.7682	-19.279877	-100.627884	4.862708	-8.933921	13.058828	-0.0	20.901598	1e-06	81.80912	18.559937	4.544167	-0.0	-1e-06	1e-06	-0.0	1e-06	0.0	-0.0	1e-06	1e-06	-0.0	0.0	1e-06	-0.0	1e-06	-1e-06	-0.0	1e-06	-1e-06	-0.0	-2e-06	1e-06	1e-06	0.0	0.0	1e-06	0.0	0.0	-0.0	-1e-06	2e-06	-0.0	0.0	-1e-06	-0.0	0.0	-1e-06	-0.0	-1e-06	1e-06	1e-06	0.0	-1e-06	-0.0	0.0	-1e-06	16.225031	-6.2579	-176.030197	-1e-06	6.496681	1.42181873983e-22	1.625503	-11.468303	-3.003356	179.999998	-88.799957	179.999987	-16.0469	-2.046484	177.752518	-0.0	7.485611	0.0	-1.624054	-8.164691	1.362463	-0.0	-89.300003	0.0	
-8.00000000822e-06	-0.00155415529013	0.0499788416266	-176.445909222	-12.2316910003	-91.481621	-0.020305	1.53606	0.000461	1e-06	0.0	0.0	0.83805	-19.104408	2.619821	0.18866	7.843517	-2.511897	-178.559147	-18.95845	106.094597	5.202032	-11.211313	-13.332303	-0.0	20.639799	1e-06	-74.892715	26.037859	-19.151999	-2e-06	-2e-06	0.0	-2e-06	-2e-06	0.0	-2e-06	-2e-06	0.0	-1e-06	-2e-06	1e-06	-3e-06	-2e-06	1e-06	-3e-06	-2e-06	1e-06	-3e-06	-5e-06	1e-06	-1e-06	1e-06	8.47470009226e-30	-1e-06	1e-06	8.47470009226e-30	-4e-06	-3e-06	0.0	-0.0	1e-06	0.0	-0.0	1e-06	0.0	-4e-06	-4e-06	-2.71190402952e-28	-3e-06	1e-06	-3.3898800369e-29	-3e-06	1e-06	-3.3898800369e-29	178.68034	-19.227295	-100.640549	4.788109	-8.92488	13.045015	-0.0	20.9296	1e-06	81.874756	18.557253	4.540198	1e-06	0.0	1e-06	1e-06	0.0	1e-06	-0.0	0.0	1e-06	-0.0	0.0	2e-06	-1e-06	0.0	-1e-06	-0.0	0.0	-1e-06	1e-06	0.0	0.0	-0.0	-2e-06	0.0	-0.0	-2e-06	0.0	1e-06	0.0	0.0	-0.0	0.0	-1e-06	-0.0	0.0	-1e-06	1e-06	0.0	3e-06	-0.0	-1e-06	-1e-06	-1e-06	-1e-06	-1e-06	16.238586	-6.231706	-176.031143	-1e-06	6.490041	0.0	1.643828	-11.466601	-3.004339	-179.999997	-88.799957	179.999987	-16.044846	-2.021612	177.75975	-0.0	7.48561	1e-06	-1.616832	-8.154753	1.373857	-0.0	-89.300003	0.0	
0.00048799999999	-0.00184981954028	0.0599694788761	-176.446810222	-12.2375790002	-91.480637	-0.03534	1.52654	0.014933	-0.0	0.0	0.0	0.866181	-19.162872	2.691335	0.199241	7.732362	-2.723217	-178.615814	-18.959869	105.98481	5.206025	-11.211044	-13.282942	-1e-06	20.6539	1e-06	-75.726357	25.196918	-18.362474	-2e-06	-1e-06	-1e-06	-0.0	0.0	0.0	-0.0	0.0	0.0	-0.0	1e-06	0.0	-0.0	-1e-06	0.0	-0.0	-1e-06	0.0	-1e-06	-1e-06	-8.47470009226e-30	-1e-06	2e-06	0.0	-1e-06	2e-06	0.0	-1e-06	0.0	1e-06	-0.0	0.0	0.0	-0.0	0.0	0.0	-2e-06	0.0	0.0	-1e-06	1e-06	-1e-06	-1e-06	1e-06	-1e-06	178.681552	-19.285294	-100.546906	4.775016	-8.908493	13.041419	-0.0	20.952597	1e-06	81.841957	18.531204	4.526977	-0.0	-3e-06	2e-06	1e-06	0.0	2e-06	-0.0	0.0	2e-06	-1e-06	-3e-06	0.0	-0.0	-1e-06	0.0	-0.0	-1e-06	0.0	-0.0	-1e-06	0.0	2e-06	-1e-06	1.69494001845e-29	1e-06	-1e-06	8.47470009226e-30	-0.0	-3e-06	1e-06	-0.0	0.0	-1e-06	-0.0	0.0	-1e-06	-0.0	-3e-06	0.0	-0.0	0.0	0.0	-0.0	0.0	0.0	16.22695	-6.223411	-176.0289	-2e-06	6.481931	1e-06	1.636725	-11.452152	-3.008435	-180.0	-88.79995	179.999987	-16.043549	-2.01233	177.765457	-0.0	7.48318	0.0	-1.617574	-8.143486	1.371146	-0.0	-89.300003	0.0	
0.002273	-0.00185634993971	0.0599542685545	-176.453676222	-12.1389110003	-91.502106	0.018961	1.561409	0.049082	-0.0	0.0	0.0	0.953105	-19.18874	2.69538	0.249437	7.586819	-2.780683	-178.669304	-18.96225	105.875275	5.213115	-11.211818	-13.235582	-1e-06	20.670898	1e-06	-76.552048	24.342115	-17.578079	1e-06	-4e-06	5.6498000615e-29	1e-06	-1e-06	1e-06	1e-06	-1e-06	1e-06	1e-06	-4e-06	5.6498000615e-29	1e-06	-1e-06	8.47470009226e-30	1e-06	-1e-06	8.47470009226e-30	1e-06	-2e-06	0.0	1e-06	-1e-06	8.47470009226e-30	-1e-06	-1e-06	-8.47470009226e-30	1e-06	-3e-06	0.0	1e-06	0.0	0.0	1e-06	0.0	0.0	1e-06	-3e-06	0.0	-1e-06	1e-06	-1e-06	-1e-06	1e-06	-1e-06	178.649767	-19.263062	-100.52623	4.792959	-8.885667	13.043928	-0.0	20.952898	1e-06	81.867538	18.507584	4.502963	-0.0	1e-06	1e-06	-0.0	-1e-06	1e-06	-0.0	-1e-06	1e-06	-1e-06	2e-06	2e-06	-1e-06	0.0	-1e-06	-1e-06	0.0	1e-06	-1e-06	2e-06	3e-06	-0.0	-2e-06	3e-06	-0.0	-2e-06	3e-06	-0.0	1e-06	2e-06	-1e-06	-1e-06	2e-06	-1e-06	-1e-06	2e-06	-0.0	1e-06	3e-06	-1e-06	1e-06	1e-06	-1e-06	1e-06	1e-06	16.326471	-6.24178	-176.006866	2e-06	6.450179	-2.84363747966e-22	1.636657	-11.458058	-3.020094	-179.999999	-88.799957	179.999995	-15.935875	-2.01176	177.790695	1e-06	7.475669	1e-06	-1.611577	-8.131639	1.359617	-0.0	-89.300003	0.0	
